<svg width="18" height="18" viewBox="0 0 18 18" fill="none" xmlns="http://www.w3.org/2000/svg">
<path d="M9.00083 6.50008C7.61967 6.50008 6.50081 7.61933 6.50081 9.00008C6.50081 10.3812 7.62008 11.5001 9.00083 11.5001C10.3819 11.5001 11.5008 10.3808 11.5008 9.00008C11.5008 7.619 10.3816 6.50008 9.00083 6.50008ZM9.00083 4.83341C11.3012 4.83341 13.1675 6.69766 13.1675 9.00008C13.1675 11.3005 11.3032 13.1667 9.00083 13.1667C6.70042 13.1667 4.83415 11.3025 4.83415 9.00008C4.83415 6.69969 6.6984 4.83341 9.00083 4.83341ZM14.4175 4.62437C14.4175 5.19946 13.9502 5.66606 13.3758 5.66606C12.8007 5.66606 12.3342 5.19875 12.3342 4.62437C12.3342 4.05 12.8014 3.58341 13.3758 3.58341C13.9494 3.58269 14.4175 4.05 14.4175 4.62437ZM9.00083 2.33341C6.93875 2.33341 6.60265 2.33887 5.64356 2.38158C4.99012 2.41226 4.55211 2.50014 4.14513 2.65814C3.78346 2.79841 3.52257 2.9659 3.2446 3.24387C2.96556 3.52291 2.79836 3.78311 2.65866 4.14494C2.5003 4.55285 2.41244 4.99017 2.38231 5.64271C2.33919 6.56275 2.33415 6.88429 2.33415 9.00008C2.33415 11.0622 2.33961 11.3982 2.38231 12.3572C2.413 13.0104 2.501 13.4491 2.65861 13.8551C2.79925 14.2172 2.96708 14.4787 3.24371 14.7554C3.52386 15.0352 3.78482 15.2029 4.14322 15.3412C4.55516 15.5005 4.9929 15.5885 5.64343 15.6186C6.56348 15.6617 6.88502 15.6667 9.00083 15.6667C11.0629 15.6667 11.399 15.6612 12.358 15.6186C13.0097 15.588 13.4487 15.4997 13.8558 15.3422C14.217 15.202 14.4793 15.0336 14.7562 14.7572C15.0363 14.4766 15.2037 14.2162 15.3422 13.857C15.5011 13.4466 15.5892 13.0082 15.6193 12.3575C15.6624 11.4374 15.6675 11.1158 15.6675 9.00008C15.6675 6.93801 15.662 6.60192 15.6193 5.64289C15.5887 4.99096 15.5004 4.55132 15.3427 4.1444C15.2028 3.78373 15.0347 3.52204 14.757 3.24387C14.4775 2.96437 14.218 2.79752 13.8559 2.65793C13.4483 2.4997 13.0103 2.41171 12.3582 2.38159C11.4382 2.33846 11.1166 2.33341 9.00083 2.33341ZM9.00083 0.666748C11.2647 0.666748 11.5473 0.675081 12.4362 0.716748C13.323 0.757723 13.9279 0.897998 14.4592 1.10425C15.0084 1.31606 15.4723 1.60216 15.9355 2.06536C16.398 2.52856 16.6842 2.99383 16.8967 3.54175C17.1022 4.07231 17.2425 4.67786 17.2842 5.56466C17.3237 6.45356 17.3342 6.73619 17.3342 9.00008C17.3342 11.264 17.3258 11.5466 17.2842 12.4355C17.2432 13.3223 17.1022 13.9272 16.8967 14.4584C16.6848 15.0077 16.398 15.4716 15.9355 15.9348C15.4723 16.3973 15.0063 16.6834 14.4592 16.8959C13.9279 17.1015 13.323 17.2417 12.4362 17.2834C11.5473 17.323 11.2647 17.3334 9.00083 17.3334C6.73692 17.3334 6.45428 17.3251 5.5654 17.2834C4.67859 17.2424 4.07442 17.1015 3.54248 16.8959C2.99386 16.6841 2.52928 16.3973 2.06609 15.9348C1.6029 15.4716 1.31748 15.0057 1.10498 14.4584C0.898731 13.9272 0.759147 13.3223 0.717481 12.4355C0.677897 11.5466 0.66748 11.264 0.66748 9.00008C0.66748 6.73619 0.675814 6.45356 0.717481 5.56466C0.758447 4.67716 0.898731 4.073 1.10498 3.54175C1.31678 2.99314 1.6029 2.52856 2.06609 2.06536C2.52928 1.60216 2.99456 1.31675 3.54248 1.10425C4.07373 0.897998 4.6779 0.758415 5.5654 0.716748C6.45428 0.677165 6.73692 0.666748 9.00083 0.666748Z" fill="white"/>
</svg>
