<svg width="19" height="23" viewBox="0 0 19 23" fill="none" xmlns="http://www.w3.org/2000/svg">
<path d="M6.05127 18.6666C5.47489 18.6666 4.98892 18.4688 4.59334 18.0733C4.19778 17.6777 4.00001 17.1917 4.00001 16.6153V2.25635C4.00001 1.67997 4.19778 1.19399 4.59334 0.798411C4.98892 0.402856 5.47489 0.205078 6.05127 0.205078H16.4103C16.9867 0.205078 17.4726 0.402856 17.8682 0.798411C18.2638 1.19399 18.4615 1.67997 18.4615 2.25635V16.6153C18.4615 17.1917 18.2638 17.6777 17.8682 18.0733C17.4726 18.4688 16.9867 18.6666 16.4103 18.6666H6.05127ZM6.05127 17.4358H16.4103C16.6154 17.4358 16.8034 17.3504 16.9744 17.1794C17.1453 17.0085 17.2308 16.8205 17.2308 16.6153V2.25635C17.2308 2.05121 17.1453 1.86318 16.9744 1.69224C16.8034 1.52131 16.6154 1.43585 16.4103 1.43585H6.05127C5.84616 1.43585 5.65813 1.52131 5.48717 1.69224C5.31624 1.86318 5.23077 2.05121 5.23077 2.25635V16.6153C5.23077 16.8205 5.31624 17.0085 5.48717 17.1794C5.65813 17.3504 5.84616 17.4358 6.05127 17.4358ZM2.25641 22.4615C1.68003 22.4615 1.19405 22.2637 0.798472 21.8681C0.402917 21.4726 0.205139 20.9866 0.205139 20.4102V4.82045H1.43591V20.4102C1.43591 20.6153 1.52137 20.8034 1.69231 20.9743C1.86324 21.1452 2.05127 21.2307 2.25641 21.2307H13.8462V22.4615H2.25641Z" fill="white"/>
</svg>
